<?xml version="1.0" encoding="UTF-8"?>
<!DOCTYPE svg PUBLIC "-//W3C//DTD SVG 1.1//EN" "http://www.w3.org/Graphics/SVG/1.1/DTD/svg11.dtd">
<svg xmlns="http://www.w3.org/2000/svg" version="1.1" width="1092px" height="834px" style="shape-rendering:geometricPrecision; text-rendering:geometricPrecision; image-rendering:optimizeQuality; fill-rule:evenodd; clip-rule:evenodd" xmlns:xlink="http://www.w3.org/1999/xlink">
<g><path style="opacity:0.995" fill="#05133f" d="M 295.5,-0.5 C 416.5,-0.5 537.5,-0.5 658.5,-0.5C 632.994,71.1844 606.994,142.684 580.5,214C 494.5,214.333 408.5,214.667 322.5,215C 277.241,217.86 245.741,240.026 228,281.5C 212.963,331.386 226.13,371.886 267.5,403C 280.672,411.418 295.005,416.751 310.5,419C 375.499,419.5 440.499,419.667 505.5,419.5C 479.904,491.284 453.904,562.951 427.5,634.5C 384.171,635.667 340.837,635.833 297.5,635C 183.033,624.553 96.8661,570.053 39,471.5C 15.537,427.962 2.3703,381.628 -0.5,332.5C -0.5,322.5 -0.5,312.5 -0.5,302.5C 7.97576,192.617 57.9758,107.45 149.5,47C 194.465,19.6223 243.132,3.78901 295.5,-0.5 Z"/></g>
<g><path style="opacity:0.996" fill="#05133f" d="M 1091.5,508.5 C 1091.5,513.5 1091.5,518.5 1091.5,523.5C 1085.32,636.395 1035.32,723.895 941.5,786C 896.531,813.379 847.865,829.212 795.5,833.5C 674.5,833.5 553.5,833.5 432.5,833.5C 458.364,761.909 484.03,690.243 509.5,618.5C 600.185,618.972 690.851,618.472 781.5,617C 819.364,609.818 846.198,588.651 862,553.5C 877.151,508.27 867.318,469.437 832.5,437C 817.1,424.304 799.433,416.637 779.5,414C 714.834,413.5 650.168,413.333 585.5,413.5C 610.805,341.418 636.805,269.585 663.5,198C 706.5,197.333 749.5,197.333 792.5,198C 902.74,207.501 987.24,258.668 1046,351.5C 1074.39,400.086 1089.56,452.419 1091.5,508.5 Z"/></g>
</svg>
