<?xml version="1.0" encoding="UTF-8"?>
<!DOCTYPE svg PUBLIC "-//W3C//DTD SVG 1.1//EN" "http://www.w3.org/Graphics/SVG/1.1/DTD/svg11.dtd">
<svg xmlns="http://www.w3.org/2000/svg" version="1.1" width="1092px" height="834px" style="shape-rendering:geometricPrecision; text-rendering:geometricPrecision; image-rendering:optimizeQuality; fill-rule:evenodd; clip-rule:evenodd" xmlns:xlink="http://www.w3.org/1999/xlink">
<g><path style="opacity:0.996" fill="#fed859" d="M 294.5,-0.5 C 415.833,-0.5 537.167,-0.5 658.5,-0.5C 632.994,71.1844 606.994,142.684 580.5,214C 493.833,214.333 407.167,214.667 320.5,215C 276.225,218.625 245.392,240.792 228,281.5C 213.884,326.805 224.384,365.305 259.5,397C 274.788,408.99 292.122,416.324 311.5,419C 376.166,419.5 440.832,419.667 505.5,419.5C 479.904,491.284 453.904,562.951 427.5,634.5C 384.504,635.667 341.504,635.833 298.5,635C 189.263,625.496 105.097,574.996 46,483.5C 18.077,436.904 2.57701,386.57 -0.5,332.5C -0.5,322.5 -0.5,312.5 -0.5,302.5C 7.058,197.566 53.3913,114.733 138.5,54C 185.884,22.5942 237.884,4.42758 294.5,-0.5 Z"/></g>
<g><path style="opacity:0.995" fill="#fed859" d="M 1091.5,508.5 C 1091.5,513.167 1091.5,517.833 1091.5,522.5C 1084.95,641.455 1030.95,731.622 929.5,793C 887.262,816.139 842.262,829.639 794.5,833.5C 673.833,833.5 553.167,833.5 432.5,833.5C 457.805,761.418 483.805,689.585 510.5,618C 602.53,617.985 694.53,617.318 786.5,616C 838.044,602.284 865.711,568.784 869.5,515.5C 866.908,470.101 844.908,438.268 803.5,420C 796.036,417.217 788.37,415.217 780.5,414C 715.501,413.5 650.501,413.333 585.5,413.5C 610.805,341.418 636.805,269.585 663.5,198C 706.833,197.333 750.167,197.333 793.5,198C 909.661,208.955 996.494,264.788 1054,365.5C 1077.32,410.448 1089.82,458.115 1091.5,508.5 Z"/></g>
</svg>
