<?xml version="1.0" encoding="UTF-8"?>
<!DOCTYPE svg PUBLIC "-//W3C//DTD SVG 1.1//EN" "http://www.w3.org/Graphics/SVG/1.1/DTD/svg11.dtd">
<svg xmlns="http://www.w3.org/2000/svg" version="1.1" width="3490px" height="945px" style="shape-rendering:geometricPrecision; text-rendering:geometricPrecision; image-rendering:optimizeQuality; fill-rule:evenodd; clip-rule:evenodd" xmlns:xlink="http://www.w3.org/1999/xlink">
<g><path style="opacity:0.994" fill="#05133f" d="M 219.5,-0.5 C 312.167,-0.5 404.833,-0.5 497.5,-0.5C 478.167,53.8333 458.833,108.167 439.5,162.5C 369.469,162.02 299.469,162.52 229.5,164C 196.916,172.251 176.749,192.751 169,225.5C 164.631,268.937 182.798,298.437 223.5,314C 230.047,315.777 236.714,316.777 243.5,317C 289.833,317.333 336.167,317.667 382.5,318C 362.74,371.778 343.073,425.612 323.5,479.5C 291.839,480.667 260.172,480.833 228.5,480C 140.048,473.134 73.5475,431.634 29,355.5C 11.508,322.517 1.67463,287.517 -0.5,250.5C -0.5,243.5 -0.5,236.5 -0.5,229.5C 7.43243,132.77 54.7658,62.9371 141.5,20C 166.557,9.07062 192.557,2.23728 219.5,-0.5 Z"/></g>
<g><path style="opacity:0.993" fill="#05133f" d="M 1137.5,48.5 C 1224.65,40.9466 1297.99,68.7799 1357.5,132C 1330.99,158.68 1304.32,185.18 1277.5,211.5C 1240.46,176.762 1196.46,161.595 1145.5,166C 1079.74,171.109 1039.24,205.609 1024,269.5C 1013.83,314.992 1019.5,358.325 1041,399.5C 1064.13,436.562 1097.63,457.395 1141.5,462C 1184.3,467.981 1223.13,458.481 1258,433.5C 1258.5,411.836 1258.67,390.169 1258.5,368.5C 1219.83,368.5 1181.17,368.5 1142.5,368.5C 1142.5,332.5 1142.5,296.5 1142.5,260.5C 1218.17,260.5 1293.83,260.5 1369.5,260.5C 1369.67,335.834 1369.5,411.167 1369,486.5C 1335.37,533.092 1290.21,562.258 1233.5,574C 1200.78,580.151 1167.78,582.151 1134.5,580C 1076.27,576.823 1024.6,557.156 979.5,521C 938.515,483.552 912.682,437.385 902,382.5C 890.086,322.721 894.086,264.054 914,206.5C 945.555,125.62 1003.72,75.4535 1088.5,56C 1104.86,52.6885 1121.19,50.1885 1137.5,48.5 Z"/></g>
<g><path style="opacity:0.992" fill="#05133f" d="M 2176.5,50.5 C 2229.21,49.1405 2279.21,59.9738 2326.5,83C 2396.97,122.359 2438.47,182.193 2451,262.5C 2459.62,316.679 2454.95,369.679 2437,421.5C 2404.79,500.692 2346.96,550.192 2263.5,570C 2215.03,580.157 2166.37,581.157 2117.5,573C 2041.89,559.322 1984.39,519.822 1945,454.5C 1917.86,401.356 1907.2,345.022 1913,285.5C 1917.7,217.942 1944.53,161.109 1993.5,115C 2036.89,78.9906 2086.89,58.3239 2143.5,53C 2154.66,52.1643 2165.66,51.331 2176.5,50.5 Z M 2179.5,165.5 C 2231.05,164.596 2272.55,184.263 2304,224.5C 2327.14,260.202 2335.48,299.202 2329,341.5C 2318.2,403.602 2282.37,442.769 2221.5,459C 2176.91,468.888 2135.24,461.888 2096.5,438C 2056,407.326 2035.66,366.326 2035.5,315C 2036.27,262.448 2057.61,220.782 2099.5,190C 2124.12,174.847 2150.79,166.68 2179.5,165.5 Z"/></g>
<g><path style="opacity:0.993" fill="#05133f" d="M 1439.5,62.5 C 1523.17,62.3333 1606.83,62.5 1690.5,63C 1742.25,64.0116 1786.42,82.5116 1823,118.5C 1858.69,160.259 1873.02,208.592 1866,263.5C 1860.43,314.368 1835.6,352.535 1791.5,378C 1781.47,383.016 1771.47,388.016 1761.5,393C 1803.67,443.833 1845.83,494.667 1888,545.5C 1888.5,556.495 1888.67,567.495 1888.5,578.5C 1844.17,578.667 1799.83,578.5 1755.5,578C 1713.59,521.511 1671.92,464.844 1630.5,408C 1608.84,407.5 1587.17,407.333 1565.5,407.5C 1565.5,464.5 1565.5,521.5 1565.5,578.5C 1523.5,578.5 1481.5,578.5 1439.5,578.5C 1439.5,406.5 1439.5,234.5 1439.5,62.5 Z M 1565.5,173.5 C 1605.83,173.333 1646.17,173.5 1686.5,174C 1714.13,177.625 1731.96,192.792 1740,219.5C 1747.02,246.111 1740.18,268.278 1719.5,286C 1710.75,292.03 1701.08,295.697 1690.5,297C 1648.83,297.5 1607.17,297.667 1565.5,297.5C 1565.5,256.167 1565.5,214.833 1565.5,173.5 Z"/></g>
<g><path style="opacity:0.993" fill="#05133f" d="M 3489.5,230.5 C 3489.5,241.167 3489.5,251.833 3489.5,262.5C 3478.43,358.071 3425.1,412.904 3329.5,427C 3322.52,427.832 3315.52,428.499 3308.5,429C 3266.5,429.5 3224.5,429.667 3182.5,429.5C 3182.5,479.5 3182.5,529.5 3182.5,579.5C 3140.5,579.5 3098.5,579.5 3056.5,579.5C 3056.5,407.167 3056.5,234.833 3056.5,62.5C 3139.83,62.3333 3223.17,62.5 3306.5,63C 3354.46,64.0915 3396.8,79.7582 3433.5,110C 3467.15,143.131 3485.81,183.297 3489.5,230.5 Z M 3182.5,183.5 C 3223.5,183.333 3264.5,183.5 3305.5,184C 3341.61,190.109 3360.94,211.442 3363.5,248C 3361.27,286.566 3340.93,307.899 3302.5,312C 3262.5,312.5 3222.5,312.667 3182.5,312.5C 3182.5,269.5 3182.5,226.5 3182.5,183.5 Z"/></g>
<g><path style="opacity:0.993" fill="#05133f" d="M 2511.5,63.5 C 2553.17,63.5 2594.83,63.5 2636.5,63.5C 2636.33,161.834 2636.5,260.167 2637,358.5C 2642.31,426.474 2678.97,461.807 2747,464.5C 2800.05,464.095 2832.05,438.095 2843,386.5C 2844.37,379.554 2845.37,372.554 2846,365.5C 2846.5,264.834 2846.67,164.167 2846.5,63.5C 2888.5,63.5 2930.5,63.5 2972.5,63.5C 2972.67,162.167 2972.5,260.834 2972,359.5C 2963.28,502.127 2887.45,575.46 2744.5,579.5C 2697.85,579.674 2654.18,568.508 2613.5,546C 2562.65,514.546 2530.82,469.379 2518,410.5C 2515.16,396.957 2513.16,383.29 2512,369.5C 2511.5,267.501 2511.33,165.501 2511.5,63.5 Z"/></g>
<g><path style="opacity:0.992" fill="#05133f" d="M 501.5,148.5 C 537.184,148.117 572.851,148.617 608.5,150C 690.936,160.511 753.102,201.344 795,272.5C 828.761,337.32 833.761,404.32 810,473.5C 774.303,560.845 709.803,612.345 616.5,628C 607.193,629.016 597.86,629.683 588.5,630C 501.167,630.5 413.834,630.667 326.5,630.5C 345.959,576.126 365.626,521.792 385.5,467.5C 453.831,466.667 522.164,466.167 590.5,466C 626.551,458.949 648.385,437.449 656,401.5C 659.598,363.852 644.765,336.352 611.5,319C 604.791,315.986 597.791,313.986 590.5,313C 541.168,312.5 491.834,312.333 442.5,312.5C 461.771,257.688 481.437,203.021 501.5,148.5 Z"/></g>
<g><path style="opacity:0.962" fill="#05133f" d="M 3390.5,621.5 C 3407.17,621.5 3423.83,621.5 3440.5,621.5C 3440.65,622.552 3440.48,623.552 3440,624.5C 3426.79,639.373 3413.96,654.54 3401.5,670C 3388.15,670.833 3374.82,670.666 3361.5,669.5C 3371.18,653.472 3380.84,637.472 3390.5,621.5 Z"/></g>
<g><path style="opacity:0.986" fill="#05133f" d="M 2512.5,687.5 C 2555.5,687.333 2598.5,687.5 2641.5,688C 2694.01,689.51 2720.68,716.51 2721.5,769C 2721.33,816.162 2698,843.162 2651.5,850C 2621.17,850.5 2590.84,850.667 2560.5,850.5C 2560.5,880.5 2560.5,910.5 2560.5,940.5C 2544.5,940.5 2528.5,940.5 2512.5,940.5C 2512.5,856.167 2512.5,771.833 2512.5,687.5 Z M 2560.5,729.5 C 2587.5,729.333 2614.5,729.5 2641.5,730C 2662.77,734.155 2673.1,747.155 2672.5,769C 2672.63,792.198 2661.29,805.531 2638.5,809C 2612.5,809.5 2586.5,809.667 2560.5,809.5C 2560.5,782.833 2560.5,756.167 2560.5,729.5 Z"/></g>
<g><path style="opacity:0.976" fill="#05133f" d="M 2762.5,687.5 C 2828.17,687.5 2893.83,687.5 2959.5,687.5C 2959.5,701.5 2959.5,715.5 2959.5,729.5C 2910.17,729.5 2860.83,729.5 2811.5,729.5C 2811.5,749.833 2811.5,770.167 2811.5,790.5C 2855.5,790.5 2899.5,790.5 2943.5,790.5C 2943.5,804.5 2943.5,818.5 2943.5,832.5C 2899.5,832.5 2855.5,832.5 2811.5,832.5C 2811.5,854.5 2811.5,876.5 2811.5,898.5C 2861.5,898.5 2911.5,898.5 2961.5,898.5C 2961.5,912.5 2961.5,926.5 2961.5,940.5C 2895.17,940.5 2828.83,940.5 2762.5,940.5C 2762.5,856.167 2762.5,771.833 2762.5,687.5 Z"/></g>
<g><path style="opacity:0.976" fill="#05133f" d="M 3013.5,687.5 C 3063.85,687.079 3114.18,687.579 3164.5,689C 3207.72,696.233 3229.38,721.899 3229.5,766C 3230.2,791.916 3220.87,813.25 3201.5,830C 3197.21,833.309 3192.55,835.809 3187.5,837.5C 3203.94,871.715 3220.94,905.715 3238.5,939.5C 3220.84,940.666 3203.18,940.833 3185.5,940C 3170.31,909.12 3154.98,878.287 3139.5,847.5C 3113.84,846.5 3088.18,846.167 3062.5,846.5C 3062.5,877.833 3062.5,909.167 3062.5,940.5C 3046.17,940.5 3029.83,940.5 3013.5,940.5C 3013.5,856.167 3013.5,771.833 3013.5,687.5 Z M 3062.5,729.5 C 3091.5,729.333 3120.5,729.5 3149.5,730C 3169.97,733.397 3180.31,745.564 3180.5,766.5C 3181.11,784.689 3173.11,797.189 3156.5,804C 3125.21,805.462 3093.87,805.962 3062.5,805.5C 3062.5,780.167 3062.5,754.833 3062.5,729.5 Z"/></g>
<g><path style="opacity:0.983" fill="#05133f" d="M 3489.5,687.5 C 3489.5,745.167 3489.5,802.833 3489.5,860.5C 3484.86,903.981 3461.19,930.814 3418.5,941C 3411.05,942.325 3403.71,943.491 3396.5,944.5C 3387.17,944.5 3377.83,944.5 3368.5,944.5C 3349.91,942.931 3332.25,937.765 3315.5,929C 3292.26,913.035 3279.42,890.868 3277,862.5C 3276.5,804.168 3276.33,745.834 3276.5,687.5C 3292.5,687.5 3308.5,687.5 3324.5,687.5C 3324.33,741.834 3324.5,796.168 3325,850.5C 3327.93,885.596 3347.1,903.262 3382.5,903.5C 3401.49,904.084 3417.32,897.418 3430,883.5C 3435.26,875.982 3438.59,867.649 3440,858.5C 3440.5,801.501 3440.67,744.501 3440.5,687.5C 3456.83,687.5 3473.17,687.5 3489.5,687.5 Z"/></g>
</svg>
