<?xml version="1.0" encoding="UTF-8"?>
<!DOCTYPE svg PUBLIC "-//W3C//DTD SVG 1.1//EN" "http://www.w3.org/Graphics/SVG/1.1/DTD/svg11.dtd">
<svg xmlns="http://www.w3.org/2000/svg" version="1.1" width="2637px" height="477px" style="shape-rendering:geometricPrecision; text-rendering:geometricPrecision; image-rendering:optimizeQuality; fill-rule:evenodd; clip-rule:evenodd" xmlns:xlink="http://www.w3.org/1999/xlink">
<g><path style="opacity:0.99" fill="#05133f" d="M 166.5,-0.5 C 236.167,-0.5 305.833,-0.5 375.5,-0.5C 361.03,40.9091 346.364,82.2424 331.5,123.5C 279.166,123.333 226.832,123.5 174.5,124C 148.224,129.942 132.391,146.109 127,172.5C 124.291,198.246 133.791,218.08 155.5,232C 162.095,235.532 169.095,237.865 176.5,239C 213.838,239.167 251.171,239.667 288.5,240.5C 273.79,281.465 258.79,322.299 243.5,363C 219.167,363.667 194.833,363.667 170.5,363C 95.6018,355.741 42.7684,317.908 12,249.5C 5.91687,233.168 1.75021,216.501 -0.5,199.5C -0.5,187.5 -0.5,175.5 -0.5,163.5C 8.6723,95.8449 43.6723,46.6782 104.5,16C 124.457,7.34591 145.124,1.84591 166.5,-0.5 Z"/></g>
<g><path style="opacity:0.99" fill="#05133f" d="M 861.5,36.5 C 925.778,31.5246 979.945,52.1913 1024,98.5C 1024.67,99.5 1024.67,100.5 1024,101.5C 1004.32,121.347 984.486,141.014 964.5,160.5C 936.216,133.793 902.55,122.293 863.5,126C 816.295,130.222 786.462,155.055 774,200.5C 765.855,234.389 769.189,267.055 784,298.5C 800.955,327.918 826.455,344.751 860.5,349C 893.11,353.949 922.776,346.949 949.5,328C 950.491,311.911 950.825,295.744 950.5,279.5C 921.167,279.5 891.833,279.5 862.5,279.5C 862.5,252.167 862.5,224.833 862.5,197.5C 919.833,197.5 977.167,197.5 1034.5,197.5C 1034.67,254.168 1034.5,310.834 1034,367.5C 1002.71,410.577 960.208,434.077 906.5,438C 869.389,441.864 833.055,438.197 797.5,427C 735.176,403.671 696.676,359.505 682,294.5C 669.158,237.073 675.825,182.073 702,129.5C 730.331,80.7097 772.498,51.2097 828.5,41C 839.614,39.2374 850.614,37.7374 861.5,36.5 Z"/></g>
<g><path style="opacity:0.99" fill="#05133f" d="M 1634.5,38.5 C 1673.67,36.594 1711.33,43.094 1747.5,58C 1807.27,87.4655 1842.1,135.299 1852,201.5C 1858.39,245.222 1853.39,287.555 1837,328.5C 1813.35,378.807 1774.85,411.974 1721.5,428C 1682.27,438.278 1642.61,440.278 1602.5,434C 1512.7,416.537 1460.54,362.704 1446,272.5C 1440.02,229.021 1445.35,187.021 1462,146.5C 1489.2,90.6565 1533.37,56.4898 1594.5,44C 1607.89,41.4944 1621.23,39.6611 1634.5,38.5 Z M 1642.5,125.5 C 1692.53,123.911 1728.69,145.244 1751,189.5C 1765.59,227.587 1763.26,264.587 1744,300.5C 1721.2,333.407 1689.53,350.074 1649,350.5C 1600.35,349.701 1566.01,327.368 1546,283.5C 1530.84,240.705 1536.51,201.038 1563,164.5C 1584.22,140.638 1610.72,127.638 1642.5,125.5 Z"/></g>
<g><path style="opacity:0.99" fill="#05133f" d="M 1086.5,47.5 C 1151.5,47.3333 1216.5,47.5 1281.5,48C 1327.36,50.1717 1363.53,69.6717 1390,106.5C 1411.35,142.961 1416.35,181.628 1405,222.5C 1396.64,249.189 1380.47,269.689 1356.5,284C 1348.11,288.861 1339.45,293.194 1330.5,297C 1362.33,335.5 1394.17,374 1426,412.5C 1426.5,420.827 1426.67,429.16 1426.5,437.5C 1392.83,437.667 1359.17,437.5 1325.5,437C 1294.17,394.333 1262.83,351.667 1231.5,309C 1215.17,308.5 1198.84,308.333 1182.5,308.5C 1182.5,351.5 1182.5,394.5 1182.5,437.5C 1150.5,437.5 1118.5,437.5 1086.5,437.5C 1086.5,307.5 1086.5,177.5 1086.5,47.5 Z M 1182.5,131.5 C 1213.17,131.333 1243.84,131.5 1274.5,132C 1300.74,137.413 1314.74,153.579 1316.5,180.5C 1314.05,207.453 1299.38,222.287 1272.5,225C 1242.5,225.5 1212.5,225.667 1182.5,225.5C 1182.5,194.167 1182.5,162.833 1182.5,131.5 Z"/></g>
<g><path style="opacity:0.994" fill="#05133f" d="M 2636.5,179.5 C 2636.5,184.167 2636.5,188.833 2636.5,193.5C 2630.25,268.255 2589.92,311.422 2515.5,323C 2478.19,324.442 2440.86,324.942 2403.5,324.5C 2403.5,362.167 2403.5,399.833 2403.5,437.5C 2371.83,437.5 2340.17,437.5 2308.5,437.5C 2308.5,307.5 2308.5,177.5 2308.5,47.5C 2373.17,47.3333 2437.83,47.5 2502.5,48C 2583.49,55.1594 2628.16,98.9928 2636.5,179.5 Z M 2403.5,138.5 C 2432.84,138.333 2462.17,138.5 2491.5,139C 2521.87,141.369 2538.2,157.702 2540.5,188C 2538.67,217.498 2523,233.498 2493.5,236C 2463.5,236.5 2433.5,236.667 2403.5,236.5C 2403.5,203.833 2403.5,171.167 2403.5,138.5 Z"/></g>
<g><path style="opacity:0.991" fill="#05133f" d="M 1896.5,48.5 C 1928.17,48.5 1959.83,48.5 1991.5,48.5C 1991.33,122.834 1991.5,197.167 1992,271.5C 1996.27,322.271 2023.77,348.605 2074.5,350.5C 2111.74,351.406 2135.57,334.073 2146,298.5C 2148.09,289.611 2149.43,280.611 2150,271.5C 2150.5,197.167 2150.67,122.834 2150.5,48.5C 2182.17,48.5 2213.83,48.5 2245.5,48.5C 2245.67,123.834 2245.5,199.167 2245,274.5C 2244.32,316.564 2230.98,353.898 2205,386.5C 2175.11,417.189 2138.61,434.023 2095.5,437C 2053.93,441.294 2014.59,433.961 1977.5,415C 1938.76,392.407 1913.93,359.24 1903,315.5C 1899.79,302.012 1897.79,288.345 1897,274.5C 1896.5,199.167 1896.33,123.834 1896.5,48.5 Z"/></g>
<g><path style="opacity:0.99" fill="#05133f" d="M 453.5,476.5 C 384.5,476.5 315.5,476.5 246.5,476.5C 260.756,435.401 275.423,394.401 290.5,353.5C 342.497,352.667 394.497,352.167 446.5,352C 471.051,346.981 486.885,332.481 494,308.5C 498.821,280.947 489.655,259.447 466.5,244C 460.183,240.672 453.516,238.339 446.5,237C 408.835,236.5 371.168,236.333 333.5,236.5C 348.002,195.161 363.002,153.994 378.5,113C 406.855,112.099 435.189,112.433 463.5,114C 540.746,126.576 591.58,170.076 616,244.5C 633.669,318.476 614.836,381.309 559.5,433C 528.636,458.345 493.303,472.845 453.5,476.5 Z"/></g>
</svg>
