<?xml version="1.0" encoding="UTF-8"?>
<!DOCTYPE svg PUBLIC "-//W3C//DTD SVG 1.1//EN" "http://www.w3.org/Graphics/SVG/1.1/DTD/svg11.dtd">
<svg xmlns="http://www.w3.org/2000/svg" version="1.1" width="3490px" height="945px" style="shape-rendering:geometricPrecision; text-rendering:geometricPrecision; image-rendering:optimizeQuality; fill-rule:evenodd; clip-rule:evenodd" xmlns:xlink="http://www.w3.org/1999/xlink">
<g><path style="opacity:0.994" fill="#fed859" d="M 219.5,-0.5 C 312.167,-0.5 404.833,-0.5 497.5,-0.5C 478.262,53.8122 458.595,107.979 438.5,162C 368.803,162.02 299.136,162.686 229.5,164C 190.757,174.317 170.091,199.484 167.5,239.5C 169.897,278.723 189.897,303.89 227.5,315C 232.785,316.026 238.118,316.693 243.5,317C 289.833,317.333 336.167,317.667 382.5,318C 362.139,371.918 342.472,426.084 323.5,480.5C 291.498,480.667 259.498,480.5 227.5,480C 141.245,472.987 75.7447,432.82 31,359.5C 12.8857,327.002 2.38574,292.335 -0.5,255.5C -0.5,245.167 -0.5,234.833 -0.5,224.5C 7.3764,138.878 48.0431,74.0447 121.5,30C 152.171,13.0059 184.838,2.83925 219.5,-0.5 Z"/></g>
<g><path style="opacity:0.992" fill="#fefffe" d="M 1137.5,48.5 C 1214.61,41.4201 1281.95,63.2535 1339.5,114C 1345.55,119.71 1351.21,125.71 1356.5,132C 1330.69,158.973 1304.36,185.473 1277.5,211.5C 1240.32,177.161 1196.32,161.995 1145.5,166C 1068.33,174.17 1026.5,217.003 1020,294.5C 1014.74,341.143 1026.4,382.81 1055,419.5C 1078.39,444.446 1107.23,458.612 1141.5,462C 1184.29,467.983 1223.12,458.483 1258,433.5C 1258.5,411.836 1258.67,390.169 1258.5,368.5C 1219.5,368.5 1180.5,368.5 1141.5,368.5C 1141.5,332.5 1141.5,296.5 1141.5,260.5C 1217.5,260.5 1293.5,260.5 1369.5,260.5C 1369.67,335.501 1369.5,410.501 1369,485.5C 1335.8,532.88 1290.63,562.38 1233.5,574C 1200.77,580.151 1167.77,582.151 1134.5,580C 1072.75,576.879 1018.75,555.212 972.5,515C 933.182,475.869 909.015,428.703 900,373.5C 887.657,303.231 897.324,236.231 929,172.5C 968.053,105.344 1026.22,65.511 1103.5,53C 1114.96,51.3187 1126.29,49.8187 1137.5,48.5 Z"/></g>
<g><path style="opacity:0.992" fill="#fefffe" d="M 2176.5,50.5 C 2232.06,49.1097 2284.39,61.2763 2333.5,87C 2393.49,122.368 2431.32,174.201 2447,242.5C 2460.73,305.818 2456.39,367.818 2434,428.5C 2400.57,503.577 2343.73,550.744 2263.5,570C 2216.75,579.744 2169.75,581.077 2122.5,574C 2048.66,562.064 1991.16,525.231 1950,463.5C 1920.65,411.75 1907.98,356.084 1912,296.5C 1914.53,231.196 1937.53,174.529 1981,126.5C 2026.5,83.5132 2080.66,59.0132 2143.5,53C 2154.66,52.1643 2165.66,51.331 2176.5,50.5 Z M 2179.5,165.5 C 2217.73,164.963 2251.73,176.463 2281.5,200C 2314.64,230.796 2330.97,268.963 2330.5,314.5C 2330.83,368.346 2309.16,410.513 2265.5,441C 2216.02,468.086 2165.36,470.42 2113.5,448C 2073.56,426.711 2048.73,393.877 2039,349.5C 2028.9,298.287 2040.23,252.621 2073,212.5C 2102.2,182.598 2137.7,166.931 2179.5,165.5 Z"/></g>
<g><path style="opacity:0.992" fill="#fefffe" d="M 1438.5,62.5 C 1522.5,62.3333 1606.5,62.5 1690.5,63C 1745.25,64.1328 1791.08,84.6328 1828,124.5C 1863.62,171.266 1875.29,223.599 1863,281.5C 1855.06,319.742 1834.9,349.576 1802.5,371C 1789.28,379.111 1775.61,386.445 1761.5,393C 1803.21,443.592 1845.05,494.092 1887,544.5C 1888.46,555.731 1888.96,567.064 1888.5,578.5C 1843.83,578.833 1799.16,578.5 1754.5,577.5C 1712.97,521.14 1671.64,464.64 1630.5,408C 1608.5,407.5 1586.5,407.333 1564.5,407.5C 1564.5,464.5 1564.5,521.5 1564.5,578.5C 1522.5,578.5 1480.5,578.5 1438.5,578.5C 1438.5,406.5 1438.5,234.5 1438.5,62.5 Z M 1564.5,173.5 C 1604.83,173.333 1645.17,173.5 1685.5,174C 1713.51,178.016 1731.68,193.516 1740,220.5C 1746.43,246.542 1739.6,268.375 1719.5,286C 1710.75,292.03 1701.08,295.697 1690.5,297C 1648.5,297.5 1606.5,297.667 1564.5,297.5C 1564.5,256.167 1564.5,214.833 1564.5,173.5 Z"/></g>
<g><path style="opacity:0.992" fill="#fefffe" d="M 3489.5,234.5 C 3489.5,242.5 3489.5,250.5 3489.5,258.5C 3486.98,308.697 3467.32,350.864 3430.5,385C 3394.45,412.91 3353.45,427.577 3307.5,429C 3265.5,429.5 3223.5,429.667 3181.5,429.5C 3181.5,479.5 3181.5,529.5 3181.5,579.5C 3139.5,579.5 3097.5,579.5 3055.5,579.5C 3055.5,407.167 3055.5,234.833 3055.5,62.5C 3139.17,62.3333 3222.83,62.5 3306.5,63C 3359.09,64.0668 3404.26,82.5668 3442,118.5C 3471.02,151.712 3486.85,190.378 3489.5,234.5 Z M 3181.5,183.5 C 3222.83,183.333 3264.17,183.5 3305.5,184C 3341.59,190.091 3360.92,211.425 3363.5,248C 3362.74,277.049 3349.08,297.049 3322.5,308C 3315.99,310.102 3309.32,311.435 3302.5,312C 3262.17,312.5 3221.83,312.667 3181.5,312.5C 3181.5,269.5 3181.5,226.5 3181.5,183.5 Z"/></g>
<g><path style="opacity:0.991" fill="#fefffe" d="M 2510.5,63.5 C 2552.5,63.5 2594.5,63.5 2636.5,63.5C 2636.33,162.834 2636.5,262.167 2637,361.5C 2643.7,427.868 2680.37,462.201 2747,464.5C 2800.3,463.872 2832.3,437.538 2843,385.5C 2844.47,377.558 2845.47,369.558 2846,361.5C 2846.5,262.167 2846.67,162.834 2846.5,63.5C 2888.5,63.5 2930.5,63.5 2972.5,63.5C 2972.95,166.51 2972.45,269.51 2971,372.5C 2968.21,423.695 2951.21,469.362 2920,509.5C 2882.64,549.539 2836.47,572.039 2781.5,577C 2721.26,584.818 2664.59,574.151 2611.5,545C 2562.26,513.419 2531.09,468.919 2518,411.5C 2513.89,393.057 2511.56,374.39 2511,355.5C 2510.5,258.167 2510.33,160.834 2510.5,63.5 Z"/></g>
<g><path style="opacity:0.992" fill="#fed859" d="M 501.5,148.5 C 531.835,148.333 562.168,148.5 592.5,149C 680.393,154.835 747.226,195.002 793,269.5C 828.783,335.778 834.116,404.445 809,475.5C 773.918,559.297 711.751,609.797 622.5,627C 610.901,628.768 599.234,629.768 587.5,630C 500.501,630.5 413.501,630.667 326.5,630.5C 345.669,575.828 365.335,521.328 385.5,467C 455.531,466.98 525.531,466.314 595.5,465C 637.885,452.274 658.051,423.774 656,379.5C 650.56,348.391 633.06,327.224 603.5,316C 599.203,314.842 594.869,313.842 590.5,313C 541.168,312.5 491.834,312.333 442.5,312.5C 461.371,257.553 481.038,202.886 501.5,148.5 Z"/></g>
<g><path style="opacity:0.962" fill="#fed859" d="M 3390.5,621.5 C 3407.18,621.167 3423.85,621.501 3440.5,622.5C 3427.69,638.479 3414.69,654.312 3401.5,670C 3387.83,670.667 3374.17,670.667 3360.5,670C 3370.72,653.948 3380.72,637.782 3390.5,621.5 Z"/></g>
<g><path style="opacity:0.987" fill="#fed859" d="M 2512.5,687.5 C 2555.17,687.333 2597.83,687.5 2640.5,688C 2693.15,689.314 2720.15,716.314 2721.5,769C 2721.31,816.178 2697.98,843.178 2651.5,850C 2621.17,850.5 2590.84,850.667 2560.5,850.5C 2560.5,880.5 2560.5,910.5 2560.5,940.5C 2544.5,940.5 2528.5,940.5 2512.5,940.5C 2512.5,856.167 2512.5,771.833 2512.5,687.5 Z M 2560.5,729.5 C 2587.17,729.333 2613.84,729.5 2640.5,730C 2656.89,731.73 2667.06,740.564 2671,756.5C 2675.27,774.142 2671.1,789.309 2658.5,802C 2652.49,806.115 2645.82,808.449 2638.5,809C 2612.5,809.5 2586.5,809.667 2560.5,809.5C 2560.5,782.833 2560.5,756.167 2560.5,729.5 Z"/></g>
<g><path style="opacity:0.976" fill="#fed859" d="M 2762.5,687.5 C 2828.17,687.5 2893.83,687.5 2959.5,687.5C 2959.5,701.5 2959.5,715.5 2959.5,729.5C 2910.17,729.5 2860.83,729.5 2811.5,729.5C 2811.5,749.833 2811.5,770.167 2811.5,790.5C 2855.5,790.5 2899.5,790.5 2943.5,790.5C 2943.5,804.5 2943.5,818.5 2943.5,832.5C 2899.5,832.5 2855.5,832.5 2811.5,832.5C 2811.5,854.5 2811.5,876.5 2811.5,898.5C 2861.5,898.5 2911.5,898.5 2961.5,898.5C 2961.5,912.5 2961.5,926.5 2961.5,940.5C 2895.17,940.5 2828.83,940.5 2762.5,940.5C 2762.5,856.167 2762.5,771.833 2762.5,687.5 Z"/></g>
<g><path style="opacity:0.977" fill="#fed859" d="M 3013.5,687.5 C 3058.5,687.333 3103.5,687.5 3148.5,688C 3200.1,688.606 3227.1,714.606 3229.5,766C 3230.02,799.313 3215.69,823.646 3186.5,839C 3204.04,872.376 3221.37,905.876 3238.5,939.5C 3220.84,940.666 3203.18,940.833 3185.5,940C 3169.77,909.368 3154.43,878.534 3139.5,847.5C 3113.84,846.5 3088.18,846.167 3062.5,846.5C 3062.5,877.833 3062.5,909.167 3062.5,940.5C 3046.17,940.5 3029.83,940.5 3013.5,940.5C 3013.5,856.167 3013.5,771.833 3013.5,687.5 Z M 3062.5,729.5 C 3091.17,729.333 3119.84,729.5 3148.5,730C 3169.23,733.232 3179.89,745.399 3180.5,766.5C 3180.55,781.914 3174.21,793.747 3161.5,802C 3159.5,802.667 3157.5,803.333 3155.5,804C 3124.55,805.47 3093.55,805.97 3062.5,805.5C 3062.5,780.167 3062.5,754.833 3062.5,729.5 Z"/></g>
<g><path style="opacity:0.977" fill="#fed859" d="M 3489.5,687.5 C 3489.5,743.833 3489.5,800.167 3489.5,856.5C 3488.33,882.34 3478.33,904.173 3459.5,922C 3440.69,935.77 3419.69,943.27 3396.5,944.5C 3387.17,944.5 3377.83,944.5 3368.5,944.5C 3345.31,943.27 3324.31,935.77 3305.5,922C 3285.14,902.281 3275.31,878.114 3276,849.5C 3275.5,795.501 3275.33,741.501 3275.5,687.5C 3291.83,687.5 3308.17,687.5 3324.5,687.5C 3324.33,743.168 3324.5,798.834 3325,854.5C 3329.78,887.431 3348.95,903.764 3382.5,903.5C 3402.94,903.979 3419.44,896.312 3432,880.5C 3436.27,873.034 3438.93,865.034 3440,856.5C 3440.5,800.168 3440.67,743.834 3440.5,687.5C 3456.83,687.5 3473.17,687.5 3489.5,687.5 Z"/></g>
</svg>
