<?xml version="1.0" encoding="UTF-8"?>
<!DOCTYPE svg PUBLIC "-//W3C//DTD SVG 1.1//EN" "http://www.w3.org/Graphics/SVG/1.1/DTD/svg11.dtd">
<svg xmlns="http://www.w3.org/2000/svg" version="1.1" width="2637px" height="477px" style="shape-rendering:geometricPrecision; text-rendering:geometricPrecision; image-rendering:optimizeQuality; fill-rule:evenodd; clip-rule:evenodd" xmlns:xlink="http://www.w3.org/1999/xlink">
<g><path style="opacity:0.993" fill="#fed859" d="M 162.5,-0.5 C 233.5,-0.5 304.5,-0.5 375.5,-0.5C 361.411,40.3508 346.744,81.0175 331.5,121.5C 278.472,122.026 225.472,122.859 172.5,124C 143.518,131.982 128.185,150.982 126.5,181C 129.187,214.02 146.853,233.353 179.5,239C 215.838,239.167 252.171,239.667 288.5,240.5C 273.256,280.983 258.589,321.649 244.5,362.5C 217.165,362.667 189.831,362.5 162.5,362C 84.7906,350.949 32.9573,308.449 7,234.5C 3.64186,222.537 1.14186,210.537 -0.5,198.5C -0.5,186.5 -0.5,174.5 -0.5,162.5C 8.21204,99.2239 40.212,51.7239 95.5,20C 116.748,9.19177 139.082,2.35844 162.5,-0.5 Z"/></g>
<g><path style="opacity:0.989" fill="#fed859" d="M 855.5,36.5 C 899.039,32.3078 940.039,40.4744 978.5,61C 995.949,71.4451 1011.28,84.4451 1024.5,100C 1005.33,120.5 985.5,140.333 965,159.5C 924.286,124.572 878.452,116.072 827.5,134C 797.371,148.143 779.204,171.643 773,204.5C 765.72,238.439 770.053,270.772 786,301.5C 802.385,327.62 825.885,343.12 856.5,348C 890.506,354.102 921.506,347.268 949.5,327.5C 950.499,311.18 950.833,294.847 950.5,278.5C 921.167,278.5 891.833,278.5 862.5,278.5C 862.5,251.167 862.5,223.833 862.5,196.5C 919.833,196.5 977.167,196.5 1034.5,196.5C 1034.67,253.501 1034.5,310.501 1034,367.5C 1001.35,411.251 957.515,434.751 902.5,438C 853.35,443.088 807.017,434.088 763.5,411C 720.415,383.538 693.249,344.705 682,294.5C 670.839,243.581 674.839,193.914 694,145.5C 720.439,88.4154 764.605,53.5821 826.5,41C 836.29,39.3413 845.956,37.8413 855.5,36.5 Z"/></g>
<g><path style="opacity:0.99" fill="#fed859" d="M 1627.5,38.5 C 1673.45,34.8473 1717.12,43.014 1758.5,63C 1812.12,93.6645 1843.29,139.831 1852,201.5C 1859.31,250.062 1852.31,296.395 1831,340.5C 1798.65,395.627 1750.48,427.127 1686.5,435C 1637.99,441.77 1591.32,435.437 1546.5,416C 1490.29,387.087 1457.13,341.253 1447,278.5C 1438.06,225.722 1446.06,175.722 1471,128.5C 1499.58,83.6483 1540.08,55.4816 1592.5,44C 1604.25,41.7445 1615.91,39.9111 1627.5,38.5 Z M 1636.5,125.5 C 1674.85,122.22 1707.35,134.22 1734,161.5C 1757.25,191.744 1765.25,225.744 1758,263.5C 1746.87,310.3 1717.7,338.467 1670.5,348C 1629.47,354.653 1594.3,343.487 1565,314.5C 1540.58,283.397 1532.58,248.397 1541,209.5C 1551.04,169.124 1575.88,142.624 1615.5,130C 1622.59,128.269 1629.59,126.769 1636.5,125.5 Z"/></g>
<g><path style="opacity:0.989" fill="#fed859" d="M 1086.5,47.5 C 1156.19,47.0301 1225.86,47.5301 1295.5,49C 1361.52,60.0178 1399.68,98.5178 1410,164.5C 1413.1,193.855 1407.76,221.522 1394,247.5C 1385.54,259.626 1375.37,270.126 1363.5,279C 1352.95,285.777 1341.95,291.777 1330.5,297C 1361.88,334.926 1393.38,372.759 1425,410.5C 1426.44,419.392 1426.94,428.392 1426.5,437.5C 1392.83,437.667 1359.17,437.5 1325.5,437C 1294.17,394 1262.83,351 1231.5,308C 1215.17,307.5 1198.84,307.333 1182.5,307.5C 1182.5,350.833 1182.5,394.167 1182.5,437.5C 1150.5,437.5 1118.5,437.5 1086.5,437.5C 1086.5,307.5 1086.5,177.5 1086.5,47.5 Z M 1182.5,131.5 C 1214.17,131.333 1245.84,131.5 1277.5,132C 1296.78,135.951 1308.95,147.451 1314,166.5C 1319.88,192.571 1310.71,211.071 1286.5,222C 1283.53,222.794 1280.53,223.461 1277.5,224C 1245.84,224.5 1214.17,224.667 1182.5,224.5C 1182.5,193.5 1182.5,162.5 1182.5,131.5 Z"/></g>
<g><path style="opacity:0.99" fill="#fed859" d="M 1896.5,47.5 C 1928.17,47.5 1959.83,47.5 1991.5,47.5C 1991.33,121.834 1991.5,196.167 1992,270.5C 1995.74,321.741 2023.24,348.407 2074.5,350.5C 2110.05,351.071 2133.55,334.738 2145,301.5C 2147.78,291.349 2149.45,281.016 2150,270.5C 2150.5,196.167 2150.67,121.834 2150.5,47.5C 2182.17,47.5 2213.83,47.5 2245.5,47.5C 2245.67,123.167 2245.5,198.834 2245,274.5C 2237.4,380.932 2180.23,435.265 2073.5,437.5C 2031.68,438.166 1993.68,426.666 1959.5,403C 1929.58,379.022 1910.41,348.188 1902,310.5C 1899.35,298.637 1897.68,286.637 1897,274.5C 1896.5,198.834 1896.33,123.167 1896.5,47.5 Z"/></g>
<g><path style="opacity:0.994" fill="#fed859" d="M 2636.5,178.5 C 2636.5,183.5 2636.5,188.5 2636.5,193.5C 2632.41,257.431 2599.74,298.931 2538.5,318C 2529.96,320.308 2521.29,321.975 2512.5,323C 2476.19,324.425 2439.86,324.925 2403.5,324.5C 2403.5,362.167 2403.5,399.833 2403.5,437.5C 2371.83,437.5 2340.17,437.5 2308.5,437.5C 2308.5,307.5 2308.5,177.5 2308.5,47.5C 2374.83,47.3333 2441.17,47.5 2507.5,48C 2550.71,51.1848 2585.55,69.6848 2612,103.5C 2626.91,126.396 2635.08,151.396 2636.5,178.5 Z M 2403.5,138.5 C 2434.5,138.333 2465.5,138.5 2496.5,139C 2518.28,141.779 2532.44,153.612 2539,174.5C 2543.52,194.935 2538.02,212.101 2522.5,226C 2515.19,230.772 2507.19,233.772 2498.5,235C 2466.84,235.5 2435.17,235.667 2403.5,235.5C 2403.5,203.167 2403.5,170.833 2403.5,138.5 Z"/></g>
<g><path style="opacity:0.992" fill="#fed859" d="M 443.5,476.5 C 377.833,476.5 312.167,476.5 246.5,476.5C 260.362,435.249 275.029,394.249 290.5,353.5C 343.528,352.974 396.528,352.141 449.5,351C 478.482,343.018 493.815,324.018 495.5,294C 492.693,260.526 474.693,241.193 441.5,236C 405.495,235.833 369.495,235.333 333.5,234.5C 348.744,194.017 363.411,153.351 377.5,112.5C 404.502,112.333 431.502,112.5 458.5,113C 528.282,121.949 578.115,158.116 608,221.5C 634.189,289.176 625.522,351.842 582,409.5C 545.689,452.071 499.522,474.405 443.5,476.5 Z"/></g>
</svg>
